<svg width="213" height="41" viewBox="0 0 213 41" fill="none" xmlns="http://www.w3.org/2000/svg">
<rect width="213" height="41" fill="#1E1E1E"/>
<g clip-path="url(#clip0_0_1)">
<rect width="1440" height="840" transform="translate(-160 -65)" fill="#121214"/>
<g clip-path="url(#clip1_0_1)">
<g opacity="0.2" filter="url(#filter0_f_0_1)">
<ellipse cx="-83.5" cy="50.4504" rx="395.5" ry="206.45" fill="#35875D"/>
</g>
<path d="M683.104 -75.2689C633.545 12.6728 579.651 44.5151 534.812 54.9851C451.018 74.5529 395.163 20.3227 314.123 41.7706C240.33 61.2952 228.167 124.299 177.883 171.398C118.262 227.249 -3.4684 272.63 -279.758 211.031M754.077 -91.6061C700.131 20.7008 638.277 60.1606 586.539 72.7159C492.169 95.5252 428.193 30.9979 335.799 57.7078C254.073 81.0574 243.147 150.134 181.014 204.98C113.812 264.31 -11.7729 309.723 -279.771 252.586M825.061 -107.943C766.741 28.7397 696.926 75.8061 638.29 90.4577C533.343 116.508 461.342 41.9217 357.51 73.6451C267.923 101.025 258.277 176.055 184.169 238.572C109.549 301.522 -20.0652 346.827 -279.749 294.153M896.045 -124.28C833.35 36.7787 755.564 91.4518 690.04 108.189C574.528 137.492 494.419 52.6512 379.21 89.5718C281.713 120.82 273.478 202.041 187.324 272.143C101.169 342.246 -28.3466 383.91 -279.727 335.687M967.03 -140.617C899.948 44.8175 814.201 107.108 741.779 125.92C615.69 158.464 527.484 63.3589 400.909 105.509C295.503 140.604 288.737 228.102 190.479 305.725C101.314 376.163 -36.6393 421.003 -279.705 377.243M1038 -156.954C966.546 52.8565 872.827 122.754 793.518 143.651C656.864 179.437 560.537 74.0558 422.597 121.436C309.269 160.366 304.043 254.196 193.622 339.296C97.2492 413.57 -44.9322 458.086 -279.707 418.789M1108.99 -173.292C1033.16 60.8954 931.465 138.4 845.268 161.382C698.038 200.409 593.591 84.7311 444.308 137.373C323.059 180.128 319.396 280.355 196.777 372.889C93.231 451.02 -53.2247 495.19 -279.685 460.355M1179.97 -189.629C1099.75 68.9342 990.114 154.045 897.007 179.123C739.2 221.403 626.632 95.4064 465.996 153.31C336.813 199.88 334.772 306.546 199.92 406.471C89.2248 488.491 -61.529 532.284 -279.675 501.911M1250.96 -205.966C1166.36 76.9623 1048.75 169.691 948.757 196.854C780.385 242.376 659.685 106.06 487.707 169.248C350.591 219.62 350.183 332.77 203.086 440.053C85.2536 525.995 -69.7988 569.377 -279.653 543.456M1321.93 -222.303C1232.96 85.0011 1107.38 185.336 1000.5 214.585C821.548 263.348 692.572 116.368 509.394 185.174C364.227 239.08 365.583 359.015 206.218 473.634C81.2591 563.499 -78.1145 606.471 -279.654 585.012M1392.91 -238.64C1299.56 93.0401 1166.02 200.982 1052.24 232.316C862.71 284.331 725.614 127.033 531.094 201.111C377.993 258.842 381.03 385.293 209.373 507.216C77.2997 601.025 -86.3957 643.564 -279.633 626.568M1463.9 -254.977C1366.17 101.079 1224.65 216.627 1103.99 250.047C903.895 305.304 758.667 137.697 552.793 217.038C391.759 278.583 396.476 411.582 212.527 540.787C73.3403 638.551 -94.6887 680.647 -279.623 668.113M1534.87 -271.314C1432.76 109.118 1283.29 232.273 1155.72 267.789C945.058 326.287 791.709 148.383 574.493 232.986C405.526 298.356 411.935 437.902 215.682 574.38C69.3927 676.109 -102.97 717.751 -279.601 709.669M1605.85 -287.651C1499.36 117.157 1341.93 247.919 1207.46 285.52C986.231 347.26 824.75 159.048 596.181 248.913C419.28 318.097 427.405 464.223 218.814 607.962C65.4338 713.667 -111.285 754.845 -279.602 751.225M1676.84 -303.989C1565.97 125.196 1400.57 263.564 1259.21 303.251C1027.41 368.243 857.804 169.723 617.892 264.85C433.07 337.859 442.898 490.566 221.98 641.544C61.4981 751.225 -119.555 791.938 -279.569 792.781M1747.82 -320.326C1632.58 133.224 1459.2 279.221 1310.96 320.982C1068.58 389.215 890.856 180.388 639.591 280.777C446.836 357.6 458.638 517.243 225.135 675.115C57.7493 789.021 -127.848 829.021 -279.559 834.326M1818.79 -336.663C1699.17 141.263 1517.83 294.866 1362.69 338.713C1109.74 410.188 923.886 191.052 661.279 296.714C460.591 377.362 474.003 543.446 228.266 708.708C53.6968 826.482 -136.164 866.125 -279.56 875.893M1889.78 -353C1765.78 149.302 1576.48 310.512 1414.44 356.455C1150.91 431.171 956.928 201.738 682.978 312.651C474.357 397.125 489.368 569.647 231.421 742.289C49.6791 863.943 -144.445 903.219 -279.538 917.438" stroke="url(#paint0_linear_0_1)" stroke-miterlimit="10"/>
<path fill-rule="evenodd" clip-rule="evenodd" d="M12.0111 20.6658V16.3291L0.0228271 20.785H0.00012207V25.2351H0.0228271L12.0111 29.691V25.3487L5.86369 22.9987L12.0111 20.6601V20.6658Z" fill="#F7DD43"/>
<path fill-rule="evenodd" clip-rule="evenodd" d="M81.4487 29.4752V25.1386L87.5904 22.8056L81.4487 20.4727V16.136L93.4199 20.5919H93.4483V25.0477H93.4199L81.4487 29.4809V29.4752ZM76.306 10L69.2674 32.5972H73.4451L80.4837 10H76.306Z" fill="#F7DD43"/>
<path fill-rule="evenodd" clip-rule="evenodd" d="M29.6247 15.733C30.8167 17.0385 31.4411 18.7641 31.3673 20.5294V30.1564H27.1895V21.4149C27.2406 20.4386 26.9284 19.485 26.3154 18.7244C25.7364 18.0489 24.8793 17.6743 23.9881 17.714C21.3714 17.714 20.0602 19.5304 20.0602 23.1575V30.1564H15.8824V14.3537H20.0602V15.7784C21.3884 14.4899 23.1878 13.8031 25.0382 13.8825C26.7638 13.8088 28.4326 14.4842 29.6247 15.733Z" fill="#F7DD43"/>
<path fill-rule="evenodd" clip-rule="evenodd" d="M36.6916 7.55923V30.1564H40.8693V7.55923H36.6916Z" fill="#F7DD43"/>
<path fill-rule="evenodd" clip-rule="evenodd" d="M64.4935 30.1564H61.0083L57.5912 20.8473L54.14 30.1564H50.6548L44.7969 14.3253H49.2641L52.5564 23.7933L55.9508 14.3253H59.2146L62.609 23.8217L65.9012 14.3253H70.3684L64.5049 30.1564H64.4935Z" fill="#F7DD43"/>
<path d="M116.135 40.5478C111.855 40.5478 107.357 39.7367 103.832 37.7832V3.31672C107.302 1.41843 111.799 0.552096 116.135 0.552096C120.471 0.552096 124.862 1.36322 128.328 3.31672V16.541H119.601V7.54221C118.573 7.10904 117.324 6.94767 116.08 6.94767C114.836 6.94767 113.693 7.10904 112.61 7.54221V33.5577C113.638 33.9908 114.831 34.1522 116.08 34.1522C117.329 34.1522 118.518 33.9908 119.601 33.5577V24.5631H128.328V37.7874C124.913 39.6857 120.416 40.4968 116.135 40.552V40.5478Z" fill="#F7DD43"/>
<path d="M144.695 40.5477C140.087 40.5477 135.645 39.571 132.12 37.5665V3.47803C135.59 1.52878 140.036 0.552032 144.695 0.552032C149.353 0.552032 153.689 1.47357 157.159 3.47803V37.5665C153.744 39.571 149.247 40.4925 144.695 40.5477ZM148.436 7.65256C147.408 7.2194 146.16 7.00281 144.644 7.00281C143.128 7.00281 141.934 7.2194 140.902 7.65256V33.3962C141.93 33.8846 143.179 34.1012 144.644 34.1012C146.109 34.1012 147.353 33.8846 148.436 33.3962V7.65256Z" fill="#F7DD43"/>
<path d="M172.387 25.9135H170.056V40.0594H161.223V1.04043H172.387C177.7 1.04043 181.709 2.12335 184.852 4.34439V22.6096C181.764 24.7796 177.696 25.9135 172.387 25.9135ZM176.074 7.75876C175.262 7.16421 174.175 6.89242 172.332 6.89242H169.946V20.0615H172.332C174.12 20.0615 175.203 19.7897 176.074 19.2504V7.75876Z" fill="#F7DD43"/>
<path d="M203.329 40.0593V25.9135H196.827V40.0593H188.049V3.42282C191.247 1.52453 195.744 0.552032 200.08 0.552032C204.416 0.552032 208.858 1.52878 212.056 3.42282V40.0593H203.329ZM203.329 7.32556C202.408 6.8924 201.269 6.67582 200.076 6.67582C198.883 6.67582 197.745 6.8924 196.823 7.32556V19.7345H203.325V7.32556H203.329Z" fill="#F7DD43"/>
</g>
</g>
<defs>
<filter id="filter0_f_0_1" x="-715.055" y="-392.055" width="1263.11" height="885.012" filterUnits="userSpaceOnUse" color-interpolation-filters="sRGB">
<feFlood flood-opacity="0" result="BackgroundImageFix"/>
<feBlend mode="normal" in="SourceGraphic" in2="BackgroundImageFix" result="shape"/>
<feGaussianBlur stdDeviation="118.028" result="effect1_foregroundBlur_0_1"/>
</filter>
<linearGradient id="paint0_linear_0_1" x1="1230.4" y1="23.5942" x2="7.10098" y2="412.594" gradientUnits="userSpaceOnUse">
<stop stop-color="#20234F"/>
<stop offset="1" stop-color="#20234F" stop-opacity="0"/>
</linearGradient>
<clipPath id="clip0_0_1">
<rect width="1440" height="840" fill="white" transform="translate(-160 -65)"/>
</clipPath>
<clipPath id="clip1_0_1">
<rect width="1440" height="840" fill="white" transform="translate(-160 -65)"/>
</clipPath>
</defs>
</svg>
